<svg width="16" height="16" xmlns="http://www.w3.org/2000/svg"><style>use:not(:target){display:none;}</style><defs><path id="a" d="M11.4941 1.9941a.5.5 0 00-.3476.8594L12.293 4H2.5a.5.5 0 00-.5.5v3c-.0096.6762 1.0096.6762 1 0V5h9.293l-1.1465 1.1465a.5.5 0 10.707.707l2-2a.5.5 0 000-.707l-2-2a.5.5 0 00-.3594-.1524zm1.998 5.998A.5.5 0 0013 8.5V11H3.707l1.1465-1.1465a.5.5 0 00-.3633-.8574.5.5 0 00-.3437.1504l-1.957 1.957a.5.5 0 00-.002.793.5.5 0 00.0059.0039l1.953 1.9531a.5.5 0 10.7071-.707L3.707 12H13.5a.5.5 0 00.5-.5v-3a.5.5 0 00-.5078-.5078z" /></defs><use id="l" href="#a" fill="#0c0c0d"/><use id="d" href="#a" fill="#f9f9fa"/></svg>
