<svg width="16" height="16" xmlns="http://www.w3.org/2000/svg"><style>use:not(:target){display:none;}</style><defs><path id="a" d="M8.484 2a.5.5 0 00-.304.115L4.719 5H1.5a.5.5 0 00-.5.5v5a.5.5 0 00.5.5h3.314l3.36 2.879A.5.5 0 009 13.5v-11a.5.5 0 00-.516-.5zm4.016.889l-.56.82A5.484 5.484 0 0114 8a5.484 5.484 0 01-2.053 4.285l.563.82A6.486 6.486 0 0015 8c0-2.075-.981-3.92-2.5-5.111zm-4.5.68v8.843l-2.674-2.29A.5.5 0 005 10H2V6h2.9a.5.5 0 00.32-.115L8 3.568zm3.36.986l-.563.82A3.475 3.475 0 0112 8c0 1.051-.468 1.98-1.197 2.621l.562.818C12.355 10.613 13 9.386 13 8c0-1.389-.647-2.619-1.64-3.445z" /></defs><use id="l" href="#a" fill="#0c0c0d"/><use id="d" href="#a" fill="#f9f9fa"/></svg>
