<svg width="16" height="16" xmlns="http://www.w3.org/2000/svg"><style>use:not(:target){display:none;}</style><defs><path id="a" d="M8.477 2.996a.5.5 0 0 0-.223.068l-8 4.5a.5.5 0 0 0 0 .872l8 4.5a.5.5 0 1 0 .492-.872L1.52 8l7.226-4.065a.5.5 0 0 0-.219-.939.5.5 0 0 0-.05 0zM14.484 3a.5.5 0 0 0-.23.064l-7.994 4.5a.5.5 0 0 0 .002.872l8 4.5a.5.5 0 0 0 .744-.436L15 3.5a.5.5 0 0 0-.516-.5zM14 4.356l.006 7.289L7.526 8 14 4.356z" /></defs><use id="l" href="#a" fill="#0c0c0d"/><use id="d" href="#a" fill="#f9f9fa"/></svg>
